<?xml version="1.0" encoding="UTF-8" standalone="no"?>
<!DOCTYPE svg PUBLIC "-//W3C//DTD SVG 1.1//EN"
 "http://www.w3.org/Graphics/SVG/1.1/DTD/svg11.dtd">
<!-- Generated by graphviz version 2.38.0 (20140413.2041)
 -->
<!-- Title: G Pages: 1 -->
<svg width="348pt" height="219pt"
 viewBox="0.00 0.00 347.82 219.00" xmlns="http://www.w3.org/2000/svg" xmlns:xlink="http://www.w3.org/1999/xlink">
<g id="graph0" class="graph" transform="scale(1 1) rotate(0) translate(4 215)">
<title>G</title>
<polygon fill="white" stroke="none" points="-4,4 -4,-215 343.82,-215 343.82,4 -4,4"/>
<g id="clust1" class="cluster"><title>cluster_Global</title>
<path fill="none" stroke="gray" d="M241.331,-8C241.331,-8 319.82,-8 319.82,-8 325.82,-8 331.82,-14 331.82,-20 331.82,-20 331.82,-191 331.82,-191 331.82,-197 325.82,-203 319.82,-203 319.82,-203 241.331,-203 241.331,-203 235.331,-203 229.331,-197 229.331,-191 229.331,-191 229.331,-20 229.331,-20 229.331,-14 235.331,-8 241.331,-8"/>
<text text-anchor="middle" x="280.575" y="-190.2" font-family="Times,serif" font-size="11.00" fill="gray">Global</text>
</g>
<g id="clust2" class="cluster"><title>cluster_\nickcv</title>
<path fill="none" stroke="gray" d="M249.331,-16C249.331,-16 311.82,-16 311.82,-16 317.82,-16 323.82,-22 323.82,-28 323.82,-28 323.82,-164 323.82,-164 323.82,-170 317.82,-176 311.82,-176 311.82,-176 249.331,-176 249.331,-176 243.331,-176 237.331,-170 237.331,-164 237.331,-164 237.331,-28 237.331,-28 237.331,-22 243.331,-16 249.331,-16"/>
<text text-anchor="middle" x="280.575" y="-163.2" font-family="Times,serif" font-size="11.00" fill="gray">nickcv</text>
</g>
<g id="clust3" class="cluster"><title>cluster_\nickcv\mandrill</title>
<path fill="none" stroke="gray" d="M257.331,-24C257.331,-24 303.82,-24 303.82,-24 309.82,-24 315.82,-30 315.82,-36 315.82,-36 315.82,-137 315.82,-137 315.82,-143 309.82,-149 303.82,-149 303.82,-149 257.331,-149 257.331,-149 251.331,-149 245.331,-143 245.331,-137 245.331,-137 245.331,-36 245.331,-36 245.331,-30 251.331,-24 257.331,-24"/>
<text text-anchor="middle" x="280.575" y="-136.2" font-family="Times,serif" font-size="11.00" fill="gray">mandrill</text>
</g>
<!-- \\nickcv\\mandrill\\Message -->
<g id="node1" class="node"><title>\\nickcv\\mandrill\\Message</title>
<polygon fill="none" stroke="black" points="308.067,-122 253.084,-122 253.084,-86 308.067,-86 308.067,-122"/>
<text text-anchor="middle" x="280.575" y="-100.7" font-family="Times,serif" font-size="11.00">Message</text>
</g>
<!-- \\yii\\mail\\BaseMessage -->
<g id="node3" class="node"><title>\\yii\\mail\\BaseMessage</title>
<ellipse fill="none" stroke="black" cx="90.6653" cy="-104" rx="90.8308" ry="18"/>
<text text-anchor="middle" x="90.6653" y="-99.8" font-family="Times,serif" font-size="14.00" fill="gray">\yii\mail\BaseMessage</text>
</g>
<!-- \\nickcv\\mandrill\\Message&#45;&gt;\\yii\\mail\\BaseMessage -->
<g id="edge1" class="edge"><title>\\nickcv\\mandrill\\Message&#45;&gt;\\yii\\mail\\BaseMessage</title>
<path fill="none" stroke="black" d="M253.051,-104C236.659,-104 214.481,-104 191.819,-104"/>
<polygon fill="none" stroke="black" points="191.744,-100.5 181.744,-104 191.744,-107.5 191.744,-100.5"/>
</g>
<!-- \\nickcv\\mandrill\\Mailer -->
<g id="node2" class="node"><title>\\nickcv\\mandrill\\Mailer</title>
<polygon fill="none" stroke="black" points="307.575,-68 253.575,-68 253.575,-32 307.575,-32 307.575,-68"/>
<text text-anchor="middle" x="280.575" y="-46.7" font-family="Times,serif" font-size="11.00">Mailer</text>
</g>
<!-- \\yii\\mail\\BaseMailer -->
<g id="node4" class="node"><title>\\yii\\mail\\BaseMailer</title>
<ellipse fill="none" stroke="black" cx="90.6653" cy="-50" rx="83.0891" ry="18"/>
<text text-anchor="middle" x="90.6653" y="-45.8" font-family="Times,serif" font-size="14.00" fill="gray">\yii\mail\BaseMailer</text>
</g>
<!-- \\nickcv\\mandrill\\Mailer&#45;&gt;\\yii\\mail\\BaseMailer -->
<g id="edge2" class="edge"><title>\\nickcv\\mandrill\\Mailer&#45;&gt;\\yii\\mail\\BaseMailer</title>
<path fill="none" stroke="black" d="M253.447,-50C235.197,-50 209.635,-50 184.211,-50"/>
<polygon fill="none" stroke="black" points="184.111,-46.5001 174.111,-50 184.111,-53.5001 184.111,-46.5001"/>
</g>
</g>
</svg>
